<svg width="20" height="20" viewBox="0 0 20 20" fill="none" xmlns="http://www.w3.org/2000/svg">
<path d="M1 4.5C1 3.56936 1 3.10404 1.12236 2.72746C1.36965 1.96636 1.96636 1.36965 2.72746 1.12236C3.10404 1 3.56936 1 4.5 1C5.43064 1 5.89596 1 6.27254 1.12236C7.03364 1.36965 7.63035 1.96636 7.87764 2.72746C8 3.10404 8 3.56936 8 4.5V15.5C8 16.4306 8 16.896 7.87764 17.2725C7.63035 18.0336 7.03364 18.6303 6.27254 18.8776C5.89596 19 5.43064 19 4.5 19C3.56936 19 3.10404 19 2.72746 18.8776C1.96636 18.6303 1.36965 18.0336 1.12236 17.2725C1 16.896 1 16.4306 1 15.5V4.5Z" stroke="white" stroke-width="1.5"/>
<path d="M12 4.5C12 3.56936 12 3.10404 12.1224 2.72746C12.3697 1.96636 12.9664 1.36965 13.7275 1.12236C14.104 1 14.5694 1 15.5 1C16.4306 1 16.896 1 17.2725 1.12236C18.0336 1.36965 18.6303 1.96636 18.8776 2.72746C19 3.10404 19 3.56936 19 4.5C19 5.43064 19 5.89596 18.8776 6.27254C18.6303 7.03364 18.0336 7.63035 17.2725 7.87764C16.896 8 16.4306 8 15.5 8C14.5694 8 14.104 8 13.7275 7.87764C12.9664 7.63035 12.3697 7.03364 12.1224 6.27254C12 5.89596 12 5.43064 12 4.5Z" stroke="white" stroke-width="1.5"/>
<path d="M12 15.5C12 14.5694 12 14.104 12.1224 13.7275C12.3697 12.9664 12.9664 12.3697 13.7275 12.1224C14.104 12 14.5694 12 15.5 12C16.4306 12 16.896 12 17.2725 12.1224C18.0336 12.3697 18.6303 12.9664 18.8776 13.7275C19 14.104 19 14.5694 19 15.5C19 16.4306 19 16.896 18.8776 17.2725C18.6303 18.0336 18.0336 18.6303 17.2725 18.8776C16.896 19 16.4306 19 15.5 19C14.5694 19 14.104 19 13.7275 18.8776C12.9664 18.6303 12.3697 18.0336 12.1224 17.2725C12 16.896 12 16.4306 12 15.5Z" stroke="white" stroke-width="1.5"/>
</svg>
